<?xml version="1.0" encoding="utf-8"?>
<!-- Generator: Adobe Illustrator 19.2.1, SVG Export Plug-In . SVG Version: 6.00 Build 0)  -->
<!DOCTYPE svg PUBLIC "-//W3C//DTD SVG 1.1//EN" "http://www.w3.org/Graphics/SVG/1.1/DTD/svg11.dtd">
<svg version="1.1" id="Layer_1" xmlns="http://www.w3.org/2000/svg" xmlns:xlink="http://www.w3.org/1999/xlink" x="0px" y="0px"
	 viewBox="0 0 100 62.7" style="enable-background:new 0 0 100 62.7;" xml:space="preserve">
<style type="text/css">
	.st0{fill:#050505;}
</style>
<path class="st0" d="M62.8,2.9l-19,24.8l-4.3-7.9l-10.4,4l-6.3-10.7L5,51.1l89.9,0.1L62.8,2.9z M68.7,40l-5.9-9.1l-7.1,11.8L47.9,37
	l-7.6,6.5l-4.1-7.2l-6.8,3.4l-1.9-5.6l-6.5,7.6l-2.9-5.3l-8.3,9.2L18.5,27l4.4-9.7l5.7,10.5l10.1-5.5l4.7,12.9L62.6,7.6l15.2,22.6
	l12.6,19.4l-18-17.7L68.7,40z"/>
</svg>
