<?xml version="1.0" encoding="utf-8"?>
<!-- Generator: Adobe Illustrator 19.2.1, SVG Export Plug-In . SVG Version: 6.00 Build 0)  -->
<!DOCTYPE svg PUBLIC "-//W3C//DTD SVG 1.1//EN" "http://www.w3.org/Graphics/SVG/1.1/DTD/svg11.dtd">
<svg version="1.1" id="Layer_1" xmlns="http://www.w3.org/2000/svg" xmlns:xlink="http://www.w3.org/1999/xlink" x="0px" y="0px"
	 viewBox="0 0 100 88.5" style="enable-background:new 0 0 100 88.5;" xml:space="preserve">
<style type="text/css">
	.st0{display:none;}
	.st1{display:inline;}
	.st2{enable-background:new    ;}
	.st3{font-family:'ArialMT';}
	.st4{font-size:12px;}
</style>
<g>
	<g>
		<path d="M68.6,21.8c5,0.8,9.7-2.6,10.5-7.5c0.8-5-2.6-9.7-7.5-10.5c-5-0.8-9.7,2.6-10.5,7.5C60.3,16.3,63.7,21,68.6,21.8z"/>
		<path d="M83.7,47.1c-2.6-0.6-5.1-0.6-7.5-0.2l-2.8-7.3l3.9,0c2.1,0,3.8-1.7,3.8-3.8c0-2.1-1.7-3.8-3.8-3.8c0,0,0,0,0,0l-12.6,0
			c0,0-4.3-12.1-4.8-12.9c-1.8-3.3-6-4.5-9.3-2.6l-22,12.2c-3.3,1.8-4.5,6-2.6,9.3c0.6,1,1.4,1.9,2.3,2.5c0.9,0.9,2.1,1.4,3.3,1.6
			l13.6,6.5l-0.6,16.3c-0.1,2.1,1.6,3.9,3.7,3.9c0,0,0.1,0,0.1,0c2.1,0,3.8-1.6,3.8-3.7l0.7-18.8c0.1-1.5-0.8-2.9-2.2-3.6l-10.2-4.9
			l-0.3,0l15.4-8.6l0.4,1.2l2.4,6.6c0.5,1.5,2,2.5,3.5,2.5c0,0,0,0,0,0l5.7,0c0,0.2,0.1,0.3,0.1,0.5l3.3,8.5
			c-5.2,2.5-9.2,7.3-10.5,13.3C58.3,72.3,64.9,82.7,75.3,85c10.4,2.3,20.8-4.3,23.1-14.8C100.8,59.7,94.1,49.4,83.7,47.1z M93.3,69
			c-1.7,7.6-9.2,12.4-16.8,10.7c-7.6-1.7-12.4-9.2-10.7-16.8c0.9-4.2,3.7-7.6,7.2-9.4l4.6,12c0.3,0.9,1.1,1.5,1.9,1.6
			c0.5,0.1,1,0.1,1.5-0.1c1.4-0.5,2.1-2.1,1.5-3.4L78.1,52c1.5-0.1,2.9-0.1,4.4,0.2C90.1,53.9,94.9,61.5,93.3,69z"/>
		<path d="M21,46.7c-10.7,0-19.4,8.7-19.4,19.4c0,10.7,8.7,19.4,19.4,19.4c10.7,0,19.4-8.7,19.4-19.4C40.4,55.4,31.7,46.7,21,46.7z
			 M21,80.2c-7.8,0-14.1-6.3-14.1-14.1C6.9,58.3,13.2,52,21,52C28.7,52,35,58.3,35,66.1C35.1,73.9,28.7,80.2,21,80.2z"/>
	</g>
</g>
<g class="st0">
	<text transform="matrix(1 0 0 1 -120 -4.5)" class="st1 st3 st4">&lt;nyt_prefs&gt;</text>
	<text transform="matrix(1 0 0 1 -120 9.9)" class="st1 st3 st4">  &lt;nyt_prefix&gt;&lt;/nyt_prefix&gt;</text>
	<text transform="matrix(1 0 0 1 -120 24.3)" class="st1 st3 st4">  &lt;nyt_suffix&gt;&lt;/nyt_suffix&gt;</text>
	<text transform="matrix(1 0 0 1 -120 38.7)" class="st1 st3 st4">  &lt;nyt_base_path&gt;~/Dropbox/MyCloud/NounProject&lt;/nyt_base_path&gt;</text>
	<text transform="matrix(1 0 0 1 -120 53.1)" class="st1 st3 st4">  &lt;nyt_scaling&gt;100&lt;/nyt_scaling&gt;</text>
	<text transform="matrix(1 0 0 1 -120 67.5)" class="st1 st3 st4">  &lt;nyt_transparency&gt;true&lt;/nyt_transparency&gt;</text>
	<text transform="matrix(1 0 0 1 -120 81.9)" class="st1 st3 st4">  &lt;nyt_embedImage&gt;false&lt;/nyt_embedImage&gt;</text>
	<text transform="matrix(1 0 0 1 -120 96.3)" class="st1 st3 st4">  &lt;nyt_embedFont&gt;true&lt;/nyt_embedFont&gt;</text>
	<text transform="matrix(1 0 0 1 -120 110.7)" class="st1 st3 st4">  &lt;nyt_trimEdges&gt;false&lt;/nyt_trimEdges&gt;</text>
	<text transform="matrix(1 0 0 1 -120 125.1)" class="st1 st3 st4">  &lt;nyt_format&gt;SVG&lt;/nyt_format&gt;</text>
	<text transform="matrix(1 0 0 1 -120 139.5)" class="st1 st3 st4">  &lt;nyt_artboards&gt;all&lt;/nyt_artboards&gt;</text>
	<text transform="matrix(1 0 0 1 -120 153.9)" class="st1 st3 st4">  &lt;nyt_layers&gt;all&lt;/nyt_layers&gt;</text>
	<text transform="matrix(1 0 0 1 -120 168.3)" class="st1 st3 st4">  &lt;nyt_exportArtboards&gt;false&lt;/nyt_exportArtboards&gt;</text>
	<text transform="matrix(1 0 0 1 -120 182.7)" class="st1 st3 st4">  &lt;nyt_ignoreWarnings&gt;false&lt;/nyt_ignoreWarnings&gt;</text>
	<text transform="matrix(1 0 0 1 -120 197.1)" class="st1 st3 st4">&lt;/nyt_prefs&gt;</text>
</g>
</svg>
